<svg width="1920" height="1077" viewBox="0 0 1920 1077" fill="none" xmlns="http://www.w3.org/2000/svg">
<rect width="1920" height="1077" fill="#C8C8C8"/>
<g clip-path="url(#clip0_0_1)">
<rect width="1920" height="1084" fill="#212121"/>
<rect x="1" y="425" width="1918" height="605" fill="url(#paint0_linear_0_1)"/>
<path d="M2385.61 336.662L-37.0195 -160.271L-296 579.628C-296 579.628 -55.6691 277.449 1042.58 508.935C2140.83 740.421 2126.63 1076.56 2126.63 1076.56L2385.61 336.662Z" fill="#212121"/>
<path d="M-273.574 416.602L-69.5016 -166.428L2417.76 343.763L2213.8 926.484C2213.75 926.19 2213.7 925.867 2213.64 925.515C2213.27 923.456 2212.59 920.416 2211.33 916.467C2208.8 908.571 2203.92 897.045 2194.55 882.485C2175.8 853.366 2139.04 812.116 2067.03 763.491C1923.02 666.246 1637.95 539.483 1073.68 421.283C509.415 303.082 172.29 302.22 -23.7964 330.931C-121.842 345.286 -184.635 367.037 -222.933 385.216C-242.081 394.305 -255.106 402.501 -263.35 408.432C-267.471 411.398 -270.398 413.797 -272.298 415.458C-272.792 415.891 -273.216 416.273 -273.574 416.602Z" fill="#212121" stroke="#6AECAF"/>
</g>
<defs>
<linearGradient id="paint0_linear_0_1" x1="960" y1="1030" x2="960" y2="425" gradientUnits="userSpaceOnUse">
<stop stop-color="#6AECAF" stop-opacity="0"/>
<stop offset="1" stop-color="#6AECAF" stop-opacity="0.2"/>
</linearGradient>
<clipPath id="clip0_0_1">
<rect width="1920" height="1084" fill="white"/>
</clipPath>
</defs>
</svg>
