<svg width="1920" height="1084" viewBox="0 0 100% 1084" fill="none" xmlns="http://www.w3.org/2000/svg">
<rect width="1920" height="1084" fill="#C8C8C8"/>
<path d="M-4169 -107C-4169 -129.091 -4151.09 -147 -4129 -147H2015C2037.09 -147 2055 -129.091 2055 -107V2394C2055 2416.09 2037.09 2434 2015 2434H-4129C-4151.09 2434 -4169 2416.09 -4169 2394V-107Z" fill="#444444"/>
<path d="M-4129 -146H2015V-148H-4129V-146ZM2054 -107V2394H2056V-107H2054ZM2015 2433H-4129V2435H2015V2433ZM-4168 2394V-107H-4170V2394H-4168ZM-4129 2433C-4150.54 2433 -4168 2415.54 -4168 2394H-4170C-4170 2416.64 -4151.64 2435 -4129 2435V2433ZM2054 2394C2054 2415.54 2036.54 2433 2015 2433V2435C2037.64 2435 2056 2416.64 2056 2394H2054ZM2015 -146C2036.54 -146 2054 -128.539 2054 -107H2056C2056 -129.644 2037.64 -148 2015 -148V-146ZM-4129 -148C-4151.64 -148 -4170 -129.644 -4170 -107H-4168C-4168 -128.539 -4150.54 -146 -4129 -146V-148Z" fill="white" fill-opacity="0.1"/>
<rect width="1920" height="1084" fill="#212121"/>
<rect x="1720" y="163" width="51" height="51" fill="#65213D" fill-opacity="0.5"/>
<rect x="284" y="898" width="51" height="51" fill="#6F652C" fill-opacity="0.5"/>
<rect x="63" y="367" width="51" height="51" fill="#70F6F8" fill-opacity="0.5"/>
</svg>
