<svg width="1920" height="1077" viewBox="0 0 1920 1077" fill="none" xmlns="http://www.w3.org/2000/svg">
<rect width="1920" height="1077" fill="#C8C8C8"/>
<path d="M-2152 -107C-2152 -129.091 -2134.09 -147 -2112 -147H4032C4054.09 -147 4072 -129.091 4072 -107V2394C4072 2416.09 4054.09 2434 4032 2434H-2112C-2134.09 2434 -2152 2416.09 -2152 2394V-107Z" fill="#444444"/>
<path d="M-2112 -146H4032V-148H-2112V-146ZM4071 -107V2394H4073V-107H4071ZM4032 2433H-2112V2435H4032V2433ZM-2151 2394V-107H-2153V2394H-2151ZM-2112 2433C-2133.54 2433 -2151 2415.54 -2151 2394H-2153C-2153 2416.64 -2134.64 2435 -2112 2435V2433ZM4071 2394C4071 2415.54 4053.54 2433 4032 2433V2435C4054.64 2435 4073 2416.64 4073 2394H4071ZM4032 -146C4053.54 -146 4071 -128.539 4071 -107H4073C4073 -129.644 4054.64 -148 4032 -148V-146ZM-2112 -148C-2134.64 -148 -2153 -129.644 -2153 -107H-2151C-2151 -128.539 -2133.54 -146 -2112 -146V-148Z" fill="white" fill-opacity="0.1"/>
<g clip-path="url(#clip0_0_1)">
<rect width="1920" height="1084" fill="#212121"/>
<rect x="1" y="425" width="1918" height="605" fill="url(#paint0_linear_0_1)"/>
<path d="M2385.61 336.662L-37.0195 -160.271L-296 579.628C-296 579.628 -55.6691 277.449 1042.58 508.935C2140.83 740.421 2126.63 1076.56 2126.63 1076.56L2385.61 336.662Z" fill="#212121"/>
<path d="M-273.574 416.602L-69.5014 -166.428L2417.76 343.763L2213.8 926.484C2213.75 926.19 2213.7 925.867 2213.64 925.515C2213.27 923.456 2212.59 920.416 2211.33 916.467C2208.8 908.571 2203.92 897.045 2194.55 882.485C2175.8 853.366 2139.04 812.116 2067.03 763.492C1923.02 666.246 1637.95 539.483 1073.68 421.283C509.415 303.082 172.29 302.22 -23.7962 330.931C-121.842 345.286 -184.635 367.037 -222.932 385.216C-242.081 394.305 -255.105 402.501 -263.349 408.432C-267.471 411.398 -270.398 413.797 -272.297 415.458C-272.791 415.891 -273.216 416.273 -273.574 416.602Z" fill="#212121" stroke="#6AECAF"/>
<rect x="162" y="177" width="51" height="51" fill="#65213D" fill-opacity="0.5"/>
<rect x="877" y="936" width="51" height="51" fill="#6F652C" fill-opacity="0.5"/>
<rect x="1784" y="458" width="51" height="51" fill="#70F6F8" fill-opacity="0.5"/>
</g>
<defs>
<linearGradient id="paint0_linear_0_1" x1="960" y1="1030" x2="960" y2="425" gradientUnits="userSpaceOnUse">
<stop stop-color="#6AECAF" stop-opacity="0"/>
<stop offset="1" stop-color="#6AECAF" stop-opacity="0.2"/>
</linearGradient>
<clipPath id="clip0_0_1">
<rect width="1920" height="1084" fill="white"/>
</clipPath>
</defs>
</svg>
